<svg height="10.377" viewBox="0 0 216.795 10.377" width="216.795" xmlns="http://www.w3.org/2000/svg"><path d="m303 129.3a4.917 4.917 0 0 1 5.327 5.058 5.274 5.274 0 0 1 -1.1 3.317 4.9 4.9 0 0 1 -4.129 1.9 5.006 5.006 0 0 1 -4.135-1.812 5.254 5.254 0 0 1 -1.154-3.4 4.935 4.935 0 0 1 1.5-3.679 4.782 4.782 0 0 1 3.691-1.384zm.088.468a2.238 2.238 0 0 0 -2.069 1.388 7.409 7.409 0 0 0 -.579 3.273 6.364 6.364 0 0 0 .891 3.749 2.035 2.035 0 0 0 1.739.847 2.09 2.09 0 0 0 1.257-.365 3.006 3.006 0 0 0 1-1.493 8.278 8.278 0 0 0 .359-2.68 8.949 8.949 0 0 0 -.365-2.943 2.855 2.855 0 0 0 -.932-1.376 2.19 2.19 0 0 0 -1.3-.4z" transform="translate(-297.8 -129.211)"/><path d="m340.576 130.343v4.071h.283a2.572 2.572 0 0 0 1.075-.2 1.682 1.682 0 0 0 .7-.666 3.043 3.043 0 0 0 .377-1.265h.257v4.977h-.257a2.539 2.539 0 0 0 -.757-1.861 2.314 2.314 0 0 0 -1.4-.45h-.283v3.033a3.131 3.131 0 0 0 .085.95.751.751 0 0 0 .33.333 1.326 1.326 0 0 0 .66.143h.33v.272h-5.176v-.272h.33a1.367 1.367 0 0 0 .693-.152.658.658 0 0 0 .292-.351 3.026 3.026 0 0 0 .082-.921v-6.52a3.169 3.169 0 0 0 -.082-.95.734.734 0 0 0 -.324-.333 1.326 1.326 0 0 0 -.66-.143h-.33v-.272h8.361v2.843h-.3a2.638 2.638 0 0 0 -.523-1.484 2.3 2.3 0 0 0 -1.216-.678 7.846 7.846 0 0 0 -1.622-.111h-.92z" transform="translate(-325.403 -129.548)"/><path d="m368.113 129.78h5.117v.272h-.257a1.809 1.809 0 0 0 -.792.12.691.691 0 0 0 -.307.333 3.549 3.549 0 0 0 -.091 1.058v4.854a4.929 4.929 0 0 0 .2 1.762 1.68 1.68 0 0 0 .66.716 2.171 2.171 0 0 0 1.163.286 2.484 2.484 0 0 0 1.371-.362 2.225 2.225 0 0 0 .847-1 6.063 6.063 0 0 0 .281-2.212v-4.041a2.313 2.313 0 0 0 -.14-.95.841.841 0 0 0 -.351-.395 2.093 2.093 0 0 0 -.929-.169v-.272h3.428v.272h-.2a1.34 1.34 0 0 0 -.7.169.969.969 0 0 0 -.4.5 2.506 2.506 0 0 0 -.094.842v3.764a9.711 9.711 0 0 1 -.231 2.522 2.79 2.79 0 0 1 -1.122 1.426 4.038 4.038 0 0 1 -2.434.652 4.586 4.586 0 0 1 -1.987-.345 2.929 2.929 0 0 1 -1.353-1.2 4.158 4.158 0 0 1 -.395-1.967v-4.854a3.532 3.532 0 0 0 -.093-1.064.727.727 0 0 0 -.33-.333 2.05 2.05 0 0 0 -.862-.117v-.272z" transform="translate(-347.563 -129.555)"/><path d="m410.95 133.573 3.486 4.363a5.568 5.568 0 0 0 1.271 1.251 1.541 1.541 0 0 0 .818.234v.272h-5.161v-.272a1.373 1.373 0 0 0 .631-.152.328.328 0 0 0 .143-.272 2.678 2.678 0 0 0 -.672-1.154l-2.273-2.858-.365.307v2.7a3.062 3.062 0 0 0 .088.964.724.724 0 0 0 .336.324 1.742 1.742 0 0 0 .8.137v.272h-5v-.272h.33a1.367 1.367 0 0 0 .693-.152.658.658 0 0 0 .292-.351 3.024 3.024 0 0 0 .082-.921v-6.52a3.166 3.166 0 0 0 -.082-.95.734.734 0 0 0 -.324-.333 1.326 1.326 0 0 0 -.66-.143h-.33v-.272h4.933v.272a1.638 1.638 0 0 0 -.769.146.709.709 0 0 0 -.3.345 2.9 2.9 0 0 0 -.088.935v3.086l3.676-2.975c.511-.415.769-.745.769-.994a.487.487 0 0 0 -.316-.438 2.56 2.56 0 0 0 -.8-.1v-.272h3.866v.272a2.236 2.236 0 0 0 -.815.187 11.568 11.568 0 0 0 -1.362 1.011l-2.9 2.323z" transform="translate(-373.709 -129.555)"/><path d="m450.267 136.381h-3.5l-.415.964a2.129 2.129 0 0 0 -.2.8.66.66 0 0 0 .336.614 2.784 2.784 0 0 0 .973.175v.272h-3.3v-.272a1.469 1.469 0 0 0 .877-.441 5.888 5.888 0 0 0 .847-1.493l3.545-7.908h.14l3.574 8.127a4.948 4.948 0 0 0 .842 1.452 1.141 1.141 0 0 0 .7.263v.272h-4.8v-.272h.2a1.5 1.5 0 0 0 .812-.161.386.386 0 0 0 .161-.336.91.91 0 0 0 -.044-.272c-.009-.044-.082-.228-.219-.549l-.526-1.236zm-.248-.541-1.476-3.413-1.52 3.413z" transform="translate(-401.39 -129.067)"/><path d="m496.931 139.42v.272h-5.181v-.272h.33a1.359 1.359 0 0 0 .693-.152.645.645 0 0 0 .292-.351 3.024 3.024 0 0 0 .082-.921v-6.52a3.165 3.165 0 0 0 -.082-.95.734.734 0 0 0 -.324-.333 1.326 1.326 0 0 0 -.66-.143h-.33v-.272h5.181v.272h-.33a1.385 1.385 0 0 0 -.7.155.711.711 0 0 0 -.3.351 3.062 3.062 0 0 0 -.079.921v6.523a3.127 3.127 0 0 0 .085.95.736.736 0 0 0 .33.333 1.326 1.326 0 0 0 .66.143h.33z" transform="translate(-435.073 -129.555)"/><path d="m514.888 129.78 4.889 6.145v-4.261a1.991 1.991 0 0 0 -.257-1.2 1.405 1.405 0 0 0 -1.178-.409v-.272h3.273v.272a2.478 2.478 0 0 0 -.845.21.833.833 0 0 0 -.336.418 2.817 2.817 0 0 0 -.12.991v8.252h-.248l-6.7-8.252v6.3a1.39 1.39 0 0 0 .392 1.154 1.436 1.436 0 0 0 .894.3h.234v.272h-3.516v-.272a1.222 1.222 0 0 0 1.461-1.455v-6.993l-.21-.263a1.915 1.915 0 0 0 -.555-.517 1.717 1.717 0 0 0 -.7-.14v-.272h3.516z" transform="translate(-448.96 -129.555)"/><path d="m558.4 129.78v2.683h-.263a4.273 4.273 0 0 0 -.52-1.333 2.006 2.006 0 0 0 -.783-.649 2.494 2.494 0 0 0 -.97-.132h-.739v7.645a3.13 3.13 0 0 0 .085.95.751.751 0 0 0 .33.333 1.347 1.347 0 0 0 .669.143h.33v.272h-5.19v-.272h.327a1.379 1.379 0 0 0 .7-.152.7.7 0 0 0 .3-.351 3.023 3.023 0 0 0 .082-.921v-7.645h-.716a2.1 2.1 0 0 0 -1.455.424 2.8 2.8 0 0 0 -.8 1.686h-.287v-2.681z" transform="translate(-475.947 -129.555)"/><path d="m586.616 130.357v4.036h.2a1.568 1.568 0 0 0 1.368-.59 3.641 3.641 0 0 0 .541-1.747h.275v5.19h-.278a3.913 3.913 0 0 0 -.368-1.388 1.6 1.6 0 0 0 -.655-.728 2.512 2.512 0 0 0 -1.081-.187v2.791a4 4 0 0 0 .07 1 .61.61 0 0 0 .26.3 1.234 1.234 0 0 0 .614.117h.593a3.192 3.192 0 0 0 3.428-2.6h.272l-.444 3.15h-8.565v-.272h.33a1.367 1.367 0 0 0 .693-.152.646.646 0 0 0 .292-.351 3.023 3.023 0 0 0 .082-.921v-6.52a4.917 4.917 0 0 0 -.038-.827.7.7 0 0 0 -.272-.394 1.267 1.267 0 0 0 -.76-.2h-.33v-.272h8.3v2.931h-.278a3.589 3.589 0 0 0 -.6-1.543 2.209 2.209 0 0 0 -1.084-.687 5.864 5.864 0 0 0 -1.534-.132h-1.023z" transform="translate(-499.544 -129.563)"/><path d="m620.617 135.16v2.776a3 3 0 0 0 .1 1.011.729.729 0 0 0 .348.333 2.375 2.375 0 0 0 .929.123v.272h-5.074v-.275a2.282 2.282 0 0 0 .932-.129.749.749 0 0 0 .345-.333 2.966 2.966 0 0 0 .1-1.008v-6.43a3.011 3.011 0 0 0 -.1-1.011.742.742 0 0 0 -.348-.333 2.362 2.362 0 0 0 -.929-.126v-.272h4.606a10.132 10.132 0 0 1 2.63.248 2.647 2.647 0 0 1 1.359.918 2.455 2.455 0 0 1 .526 1.566 2.339 2.339 0 0 1 -.789 1.812 3.285 3.285 0 0 1 -1.411.681l2.382 3.355a5.09 5.09 0 0 0 .666.812 1.223 1.223 0 0 0 .693.248v.272h-3.121l-3.194-4.518h-.652zm0-4.86v4.34h.418a4.607 4.607 0 0 0 1.52-.187 1.5 1.5 0 0 0 .792-.672 2.462 2.462 0 0 0 .289-1.268 1.923 1.923 0 0 0 -2.236-2.213z" transform="translate(-523.665 -129.54)"/><path d="m657.188 129.78 4.889 6.145v-4.261a1.991 1.991 0 0 0 -.257-1.2 1.4 1.4 0 0 0 -1.178-.409v-.272h3.273v.272a2.478 2.478 0 0 0 -.845.21.832.832 0 0 0 -.336.418 2.815 2.815 0 0 0 -.12.991v8.252h-.248l-6.7-8.252v6.3a1.39 1.39 0 0 0 .392 1.154 1.438 1.438 0 0 0 .9.3h.234v.272h-3.522v-.272a1.222 1.222 0 0 0 1.461-1.455v-6.993l-.21-.263a1.915 1.915 0 0 0 -.555-.517 1.717 1.717 0 0 0 -.7-.14v-.272h3.516z" transform="translate(-549.677 -129.555)"/><path d="m696.458 136.381h-3.5l-.415.964a2.129 2.129 0 0 0 -.2.8.66.66 0 0 0 .336.614 2.784 2.784 0 0 0 .973.175v.272h-3.3v-.272a1.469 1.469 0 0 0 .877-.441 5.887 5.887 0 0 0 .848-1.493l3.545-7.908h.14l3.574 8.127a4.949 4.949 0 0 0 .842 1.452 1.141 1.141 0 0 0 .7.263v.272h-4.8v-.272h.2a1.5 1.5 0 0 0 .812-.161.386.386 0 0 0 .161-.336.909.909 0 0 0 -.044-.272c-.009-.044-.082-.228-.219-.549l-.526-1.236zm-.248-.541-1.476-3.413-1.52 3.413z" transform="translate(-575.638 -129.067)"/><path d="m733.9 129.78v2.683h-.263a4.275 4.275 0 0 0 -.52-1.333 2 2 0 0 0 -.783-.649 2.493 2.493 0 0 0 -.97-.132h-.739v7.645a3.131 3.131 0 0 0 .085.95.751.751 0 0 0 .33.333 1.347 1.347 0 0 0 .669.143h.33v.272h-5.19v-.272h.327a1.379 1.379 0 0 0 .7-.152.711.711 0 0 0 .3-.351 3.023 3.023 0 0 0 .082-.921v-7.645h-.716a2.1 2.1 0 0 0 -1.455.424 2.8 2.8 0 0 0 -.8 1.686h-.287v-2.681z" transform="translate(-600.161 -129.555)"/><path d="m763.5 139.42v.272h-5.18v-.272h.33a1.359 1.359 0 0 0 .693-.152.646.646 0 0 0 .292-.351 3.026 3.026 0 0 0 .082-.921v-6.52a3.169 3.169 0 0 0 -.082-.95.735.735 0 0 0 -.324-.333 1.326 1.326 0 0 0 -.66-.143h-.33v-.272h5.179v.272h-.33a1.385 1.385 0 0 0 -.7.155.711.711 0 0 0 -.3.351 3.062 3.062 0 0 0 -.079.921v6.523a3.128 3.128 0 0 0 .085.95.736.736 0 0 0 .33.333 1.326 1.326 0 0 0 .66.143h.33z" transform="translate(-623.745 -129.555)"/><path d="m784.426 129.3a4.917 4.917 0 0 1 5.327 5.058 5.274 5.274 0 0 1 -1.1 3.317 4.9 4.9 0 0 1 -4.129 1.9 5.006 5.006 0 0 1 -4.135-1.812 5.254 5.254 0 0 1 -1.154-3.4 4.935 4.935 0 0 1 1.5-3.679 4.782 4.782 0 0 1 3.691-1.384zm.088.468a2.238 2.238 0 0 0 -2.069 1.388 7.409 7.409 0 0 0 -.579 3.273 6.364 6.364 0 0 0 .891 3.749 2.035 2.035 0 0 0 1.739.847 2.09 2.09 0 0 0 1.257-.365 3.006 3.006 0 0 0 1-1.493 8.279 8.279 0 0 0 .359-2.68 8.948 8.948 0 0 0 -.365-2.943 2.855 2.855 0 0 0 -.932-1.376 2.189 2.189 0 0 0 -1.3-.4z" transform="translate(-638.544 -129.211)"/><path d="m821.3 129.78 4.889 6.145v-4.261a1.99 1.99 0 0 0 -.257-1.2 1.4 1.4 0 0 0 -1.178-.409v-.272h3.273v.272a2.477 2.477 0 0 0 -.844.21.832.832 0 0 0 -.336.418 2.817 2.817 0 0 0 -.12.991v8.252h-.248l-6.7-8.252v6.3a1.39 1.39 0 0 0 .392 1.154 1.438 1.438 0 0 0 .9.3h.234v.272h-3.525v-.272a1.222 1.222 0 0 0 1.461-1.455v-6.993l-.21-.263a1.916 1.916 0 0 0 -.555-.517 1.717 1.717 0 0 0 -.7-.14v-.272h3.524z" transform="translate(-665.829 -129.555)"/><path d="m860.568 136.381h-3.5l-.415.964a2.129 2.129 0 0 0 -.2.8.66.66 0 0 0 .336.614 2.785 2.785 0 0 0 .973.175v.272h-3.3v-.272a1.47 1.47 0 0 0 .877-.441 5.889 5.889 0 0 0 .847-1.493l3.545-7.908h.14l3.574 8.127a4.948 4.948 0 0 0 .842 1.452 1.141 1.141 0 0 0 .7.263v.272h-4.8v-.272h.2a1.5 1.5 0 0 0 .812-.161.385.385 0 0 0 .161-.336.911.911 0 0 0 -.044-.272c-.009-.044-.082-.228-.219-.549l-.526-1.236zm-.248-.541-1.476-3.413-1.52 3.413z" transform="translate(-691.791 -129.067)"/><path d="m901.163 136.212-.374 3.48h-8.8v-.272h.33a1.359 1.359 0 0 0 .693-.152.645.645 0 0 0 .292-.351 3.023 3.023 0 0 0 .082-.921v-6.52a3.166 3.166 0 0 0 -.082-.95.734.734 0 0 0 -.324-.333 1.326 1.326 0 0 0 -.66-.143h-.33v-.272h5.283v.272h-.43a1.385 1.385 0 0 0 -.7.155.7.7 0 0 0 -.3.351 3.065 3.065 0 0 0 -.079.921v6.315a3.177 3.177 0 0 0 .088.967.584.584 0 0 0 .345.313 3.524 3.524 0 0 0 .885.064h.827a2.773 2.773 0 0 0 1.315-.278 2.424 2.424 0 0 0 .909-.877 7.281 7.281 0 0 0 .728-1.768h.3z" transform="translate(-718.353 -129.555)"/><path d="m941.4 139.42v.272h-5.18v-.272h.33a1.366 1.366 0 0 0 .693-.152.658.658 0 0 0 .292-.351 3.026 3.026 0 0 0 .082-.921v-6.52a3.169 3.169 0 0 0 -.082-.95.734.734 0 0 0 -.324-.333 1.326 1.326 0 0 0 -.66-.143h-.33v-.272h5.179v.272h-.33a1.378 1.378 0 0 0 -.7.155.711.711 0 0 0 -.3.351 3.065 3.065 0 0 0 -.079.921v6.523a3.128 3.128 0 0 0 .085.95.751.751 0 0 0 .33.333 1.326 1.326 0 0 0 .66.143h.33z" transform="translate(-749.658 -129.555)"/><path d="m959.348 129.78 4.889 6.145v-4.261a1.99 1.99 0 0 0 -.257-1.2 1.4 1.4 0 0 0 -1.178-.409v-.272h3.273v.272a2.478 2.478 0 0 0 -.844.21.832.832 0 0 0 -.336.418 2.817 2.817 0 0 0 -.12.991v8.252h-.248l-6.7-8.252v6.3a1.39 1.39 0 0 0 .392 1.154 1.438 1.438 0 0 0 .9.3h.234v.272h-3.523v-.272a1.222 1.222 0 0 0 1.461-1.455v-6.993l-.21-.263a1.915 1.915 0 0 0 -.555-.517 1.717 1.717 0 0 0 -.7-.14v-.272h3.516z" transform="translate(-763.537 -129.555)"/><path d="m1003.531 129.01v3.434h-.286a3.646 3.646 0 0 0 -1.2-2.06 3.049 3.049 0 0 0 -1.987-.716 2.936 2.936 0 0 0 -1.7.535 3.117 3.117 0 0 0 -1.134 1.4 6.324 6.324 0 0 0 -.459 2.455 8.115 8.115 0 0 0 .336 2.423 3.252 3.252 0 0 0 1.052 1.654 2.935 2.935 0 0 0 1.856.558 3.609 3.609 0 0 0 1.715-.409 5.876 5.876 0 0 0 1.639-1.411v.856a5.471 5.471 0 0 1 -1.736 1.262 5.279 5.279 0 0 1 -2.11.392 6.052 6.052 0 0 1 -2.817-.634 4.494 4.494 0 0 1 -1.9-1.826 5.12 5.12 0 0 1 -.669-2.536 5.411 5.411 0 0 1 2.744-4.661 5.43 5.43 0 0 1 2.68-.7 6.1 6.1 0 0 1 2.206.453 3.373 3.373 0 0 0 .856.263.559.559 0 0 0 .406-.172.92.92 0 0 0 .222-.544h.286z" transform="translate(-790.645 -129.01)"/><path d="m1032.563 155.99a1.217 1.217 0 1 1 -.859.359 1.173 1.173 0 0 1 .859-.359z" transform="translate(-816.989 -148.106)"/></svg>