<svg xmlns="http://www.w3.org/2000/svg" width="95.5" height="22.192" viewBox="0 0 95.5 22.192">
  <path id="Digital_Inline_Green" d="M11.089,0A11,11,0,0,0,1.56,16.493L0,22.192l5.83-1.529A10.987,10.987,0,0,0,11.085,22h0a11,11,0,0,0,0-22Zm0,20.144h0A9.124,9.124,0,0,1,6.433,18.87l-.334-.2-3.459.908.923-3.373-.217-.346a9.14,9.14,0,1,1,7.743,4.283ZM16.1,13.3c-.274-.138-1.626-.8-1.878-.894s-.435-.138-.618.138-.71.894-.87,1.077-.321.206-.6.069a7.511,7.511,0,0,1-2.209-1.364,8.263,8.263,0,0,1-1.529-1.9c-.16-.275-.017-.424.121-.561s.274-.321.412-.481a1.857,1.857,0,0,0,.274-.459.507.507,0,0,0-.023-.481C9.119,8.3,8.569,6.949,8.34,6.4s-.449-.463-.618-.472-.343-.01-.526-.01a1.01,1.01,0,0,0-.733.344A3.081,3.081,0,0,0,5.5,8.553,5.349,5.349,0,0,0,6.623,11.4a12.248,12.248,0,0,0,4.694,4.149,15.846,15.846,0,0,0,1.567.579,3.769,3.769,0,0,0,1.73.109,2.829,2.829,0,0,0,1.854-1.307,2.3,2.3,0,0,0,.16-1.307c-.069-.114-.252-.183-.526-.321Zm19.454-.168h-.03L33.7,5.776h-2.2l-1.853,7.265h-.03L27.935,5.776H25.589L28.413,16.45H30.79l1.778-7.266h.03l1.808,7.266h2.331L39.607,5.776h-2.3l-1.749,7.355ZM46.765,9.386a2.077,2.077,0,0,0-.859-.643,3.623,3.623,0,0,0-1.4-.231,2.776,2.776,0,0,0-1.226.307,2.454,2.454,0,0,0-1.031.979h-.045V5.776H40.085V16.449h2.122V12.4a2.865,2.865,0,0,1,.389-1.7,1.472,1.472,0,0,1,1.255-.516,1.158,1.158,0,0,1,1.061.471,2.706,2.706,0,0,1,.3,1.427v4.365h2.123V11.7a6.267,6.267,0,0,0-.127-1.308,2.494,2.494,0,0,0-.441-1Zm8.743,5.344V10.71a1.85,1.85,0,0,0-.314-1.129,2.146,2.146,0,0,0-.806-.665A3.613,3.613,0,0,0,53.3,8.594a8.683,8.683,0,0,0-1.18-.082,6.433,6.433,0,0,0-1.277.127,3.645,3.645,0,0,0-1.144.426,2.533,2.533,0,0,0-.836.792,2.458,2.458,0,0,0-.374,1.241h2.122a1.2,1.2,0,0,1,.419-.9,1.61,1.61,0,0,1,.986-.269,3.527,3.527,0,0,1,.53.037,1.173,1.173,0,0,1,.433.149.819.819,0,0,1,.3.314,1.129,1.129,0,0,1,.112.545.577.577,0,0,1-.194.5,1.423,1.423,0,0,1-.568.262,5.448,5.448,0,0,1-.822.134q-.464.046-.941.12a8.9,8.9,0,0,0-.949.2,2.689,2.689,0,0,0-.838.381,1.951,1.951,0,0,0-.6.681,2.258,2.258,0,0,0-.231,1.084,2.426,2.426,0,0,0,.2,1.031,1.944,1.944,0,0,0,.561.718,2.363,2.363,0,0,0,.837.419,3.805,3.805,0,0,0,1.031.134,4.815,4.815,0,0,0,1.4-.209,2.773,2.773,0,0,0,1.2-.733,3.088,3.088,0,0,0,.149.747h2.152a1.8,1.8,0,0,1-.21-.717,7.941,7.941,0,0,1-.06-1ZM53.386,13.46a4,4,0,0,1-.037.479,1.588,1.588,0,0,1-.2.591,1.4,1.4,0,0,1-.508.5,1.869,1.869,0,0,1-.972.21,2.591,2.591,0,0,1-.493-.046,1.2,1.2,0,0,1-.418-.157.8.8,0,0,1-.284-.307,1,1,0,0,1-.1-.478,1.039,1.039,0,0,1,.1-.494.964.964,0,0,1,.277-.321,1.385,1.385,0,0,1,.4-.2,3.919,3.919,0,0,1,.471-.12c.169-.03.339-.055.508-.075s.332-.045.486-.075a3.469,3.469,0,0,0,.434-.112.948.948,0,0,0,.336-.186v.792ZM59.469,6.4H57.346V8.721H56.061v1.42h1.285V14.7a1.978,1.978,0,0,0,.195.942,1.389,1.389,0,0,0,.53.553,2.188,2.188,0,0,0,.778.261,6.252,6.252,0,0,0,.934.067c.21,0,.424-.005.643-.014a4.938,4.938,0,0,0,.6-.06V14.806a2.76,2.76,0,0,1-.314.045q-.164.015-.343.015a1.039,1.039,0,0,1-.717-.18,1.043,1.043,0,0,1-.179-.718V10.141h1.554V8.721H59.471V6.4Zm8.772,6.66a1.92,1.92,0,0,0-.553-.613,3.015,3.015,0,0,0-.784-.4A9.291,9.291,0,0,0,66,11.8c-.3-.07-.592-.135-.881-.195a7,7,0,0,1-.77-.2,1.61,1.61,0,0,1-.544-.292.579.579,0,0,1-.209-.463.569.569,0,0,1,.119-.381.8.8,0,0,1,.292-.217,1.323,1.323,0,0,1,.381-.1,3.7,3.7,0,0,1,.388-.022,2.122,2.122,0,0,1,.987.217.927.927,0,0,1,.462.829h2.018a2.544,2.544,0,0,0-.366-1.189,2.421,2.421,0,0,0-.769-.755,3.206,3.206,0,0,0-1.054-.4,6.113,6.113,0,0,0-1.217-.12,6.7,6.7,0,0,0-1.225.111,3.372,3.372,0,0,0-1.076.39,2.149,2.149,0,0,0-.77.755,2.321,2.321,0,0,0-.292,1.226,1.648,1.648,0,0,0,.21.86,1.809,1.809,0,0,0,.552.583,3.092,3.092,0,0,0,.786.373c.294.1.6.177.9.247a12.549,12.549,0,0,1,1.772.479q.635.239.635.717a.78.78,0,0,1-.134.47,1.013,1.013,0,0,1-.336.3,1.575,1.575,0,0,1-.449.165,2.246,2.246,0,0,1-.471.053,2.436,2.436,0,0,1-.6-.075,1.575,1.575,0,0,1-.516-.232,1.244,1.244,0,0,1-.366-.4,1.172,1.172,0,0,1-.142-.591H61.292a2.6,2.6,0,0,0,.352,1.293,2.553,2.553,0,0,0,.822.83,3.487,3.487,0,0,0,1.144.449,6.408,6.408,0,0,0,1.314.134,6.547,6.547,0,0,0,1.293-.127,3.27,3.27,0,0,0,1.128-.442,2.445,2.445,0,0,0,.8-.829,2.472,2.472,0,0,0,.306-1.279,1.794,1.794,0,0,0-.209-.9Zm4.214-7.288L68.42,16.45h2.361l.836-2.377h3.991l.806,2.377h2.437L74.861,5.776H72.454Zm-.224,6.548,1.39-3.917h.03L75,12.325H72.231ZM86.189,9.768A3.232,3.232,0,0,0,85.1,8.857a3.34,3.34,0,0,0-1.568-.344,3.028,3.028,0,0,0-1.315.283,2.326,2.326,0,0,0-.986.912H81.2V8.721H79.18V19.156H81.3V15.494h.029a2.489,2.489,0,0,0,1,.859,3.006,3.006,0,0,0,1.322.292,3.2,3.2,0,0,0,1.487-.329,3.146,3.146,0,0,0,1.061-.883,3.83,3.83,0,0,0,.636-1.27,5.365,5.365,0,0,0,.209-1.5,5.935,5.935,0,0,0-.209-1.577,3.874,3.874,0,0,0-.643-1.323Zm-1.36,3.752a2.267,2.267,0,0,1-.307.785,1.615,1.615,0,0,1-1.442.756,1.658,1.658,0,0,1-.866-.21,1.675,1.675,0,0,1-.576-.546,2.353,2.353,0,0,1-.314-.785,4.281,4.281,0,0,1-.1-.911,4.794,4.794,0,0,1,.089-.927,2.337,2.337,0,0,1,.307-.793,1.733,1.733,0,0,1,.568-.56,1.632,1.632,0,0,1,.874-.218,1.579,1.579,0,0,1,.859.218,1.777,1.777,0,0,1,.575.568,2.463,2.463,0,0,1,.321.8,4.249,4.249,0,0,1,.1.913,4.621,4.621,0,0,1-.089.911Zm10.46-2.429a3.85,3.85,0,0,0-.643-1.323,3.236,3.236,0,0,0-1.09-.912,3.347,3.347,0,0,0-1.57-.344,3.027,3.027,0,0,0-1.315.283,2.338,2.338,0,0,0-.987.912h-.029V8.721H87.639V19.156h2.122V15.494h.03a2.494,2.494,0,0,0,.994.859,3.011,3.011,0,0,0,1.323.292,3.2,3.2,0,0,0,1.487-.329,3.144,3.144,0,0,0,1.061-.883,3.792,3.792,0,0,0,.635-1.27,5.3,5.3,0,0,0,.21-1.5,5.857,5.857,0,0,0-.21-1.577Zm-2,2.429a2.229,2.229,0,0,1-.306.785,1.7,1.7,0,0,1-.568.546,1.682,1.682,0,0,1-.874.21,1.637,1.637,0,0,1-1.443-.756,2.366,2.366,0,0,1-.314-.785,4.282,4.282,0,0,1-.1-.911,4.794,4.794,0,0,1,.09-.927,2.337,2.337,0,0,1,.307-.793,1.739,1.739,0,0,1,.568-.56,1.633,1.633,0,0,1,.874-.218,1.578,1.578,0,0,1,.859.218,1.779,1.779,0,0,1,.576.568,2.42,2.42,0,0,1,.321.8,4.249,4.249,0,0,1,.1.913A4.621,4.621,0,0,1,93.287,13.52Z" fill="#25d366"/>
</svg>
